# xmcd
#
# Track frame offsets:
#	150
#	9723
#	20818
#	31926
#	41515
#	52205
#	63634
#	73697
#	86900
#	96489
#	107157
#	120887
#
# Disc length: 1752 seconds
#
# Revision: 1
# Processed by: cddbd v1.5.1PL0 Copyright (c) Steve Scherf et al.
# Submitted via: audiograbber 1.82.02
#
DISCID=aa06d60c
DTITLE=Pat Boone - The Best Of Pat Boone
DYEAR=1900
DGENRE=
TTITLE0=Love Letters In The Sand
TTITLE1=April Love
TTITLE2=Moody River
TTITLE3=Bernadine
TTITLE4=Johnny Will
TTITLE5=Speedy Gonzalez
TTITLE6=Dpn't Forbid Me
TTITLE7=Jambalaya
TTITLE8=Mr Blue
TTITLE9=Tutti Frutti
TTITLE10=Friendly Persuasion
TTITLE11=Ain't That A Shame
EXTD=
EXTT0=
EXTT1=
EXTT2=
EXTT3=
EXTT4=
EXTT5=
EXTT6=
EXTT7=
EXTT8=
EXTT9=
EXTT10=
EXTT11=
PLAYORDER=
